<svg xmlns="http://www.w3.org/2000/svg" width="62" height="52" viewBox="0 0 62 52" fill="none"><path d="M31 0C48.1208 2.81058e-05 62 11.4676 62 25.6133C61.9999 35.7439 54.8806 44.4995 44.5508 48.6543C44.5501 48.6366 44.5485 48.6186 44.5488 48.6006C44.5575 48.1324 44.2698 47.8472 43.9141 47.7002C43.2298 47.4178 42.9135 46.8282 42.668 46.2334C42.4848 45.7895 42.5139 45.2546 42.8213 44.8066C42.8919 44.7034 42.9194 44.6123 42.9092 44.4668C42.8961 44.2843 43.0174 44.0892 43.0898 43.9033C43.801 42.0801 44.9921 40.5994 46.4004 39.2744C46.5335 39.1492 46.667 39.0236 46.8008 38.8994C47.1445 38.58 47.3546 38.1919 47.5332 37.752C47.911 36.8211 48.2087 35.8542 48.7539 34.9922C49.3175 34.1012 49.5614 33.1043 49.6523 32.0557C49.6994 31.5142 49.864 30.9837 49.9512 30.4443C50.1514 29.2067 50.1816 27.9664 49.8799 26.7402C49.7454 26.194 49.561 25.6589 49.3809 25.125C49.3067 24.9051 49.2125 24.669 48.9023 24.6973C48.7391 24.7122 48.4403 25.0374 48.3975 25.2461C48.3854 25.3051 48.398 25.3715 48.377 25.4258C48.3325 25.5401 48.2734 25.649 48.2197 25.7598C48.1395 25.926 48.0493 26.0888 47.9814 26.2598C47.9187 26.4179 47.8785 26.5853 47.8301 26.749C47.7737 26.9402 47.7085 27.1299 47.667 27.3242C47.5979 27.6468 47.5362 27.9575 47.2949 28.2217C47.1648 28.3646 47.1507 28.6081 47.0596 28.7939C46.9635 28.9901 46.8334 29.1698 46.7256 29.3604C46.5635 29.6463 46.394 29.9293 46.2529 30.2256C46.0069 30.7414 45.7951 31.2744 45.541 31.7861C45.2093 32.4545 44.8463 33.1078 44.5049 33.7715C44.3589 34.0554 44.2391 34.3528 44.0967 34.6387C44.0476 34.7373 43.9624 34.8173 43.9004 34.9102C43.7938 35.07 43.6913 35.2324 43.5898 35.3955C43.572 35.4242 43.5746 35.4684 43.5537 35.4932C43.2801 35.8158 43.0031 36.1353 42.7285 36.457C42.5792 36.6318 42.4317 36.8094 42.2852 36.9863C42.2578 37.0194 42.2406 37.061 42.2129 37.0938C41.6301 37.7784 41.0258 38.4464 40.4688 39.1514C39.8539 39.9295 39.3512 40.7749 38.9805 41.707C38.6025 42.6569 38.1504 43.5785 37.707 44.501C37.5708 44.7843 37.3639 45.0357 37.1768 45.292C37.0559 45.4572 36.7681 45.4858 36.5771 45.3838C35.5649 44.8424 34.554 44.279 33.4355 44C32.7659 43.8331 32.0586 43.8213 31.3701 43.7256C29.2864 43.4357 27.2022 43.1489 25.1211 42.8418C23.6549 42.6255 22.2217 42.2744 20.8564 41.6807C20.785 41.6495 20.7106 41.6249 20.6357 41.6025C20.6142 41.5961 20.5868 41.6078 20.501 41.6201C20.5886 41.7255 20.6338 41.8213 20.709 41.8633C21.0418 42.0485 21.3807 42.2245 21.7227 42.3926C22.0088 42.5332 22.3158 42.636 22.5908 42.7949C23.2241 43.1612 23.9217 43.2709 24.6279 43.375C25.2171 43.4619 25.8061 43.5634 26.3848 43.7021C26.604 43.7547 26.7859 43.9489 27 44.043C27.2329 44.1454 27.4825 44.2117 27.7275 44.2842C28.0075 44.367 28.2913 44.4378 28.5723 44.5166C28.8728 44.6011 29.1888 44.6535 29.4688 44.7832C29.9218 44.9934 30.3518 45.2544 30.79 45.4961C31.2274 45.7374 31.6623 45.9847 32.1006 46.2246C32.4097 46.3939 32.7232 46.5566 33.0361 46.7188C33.0803 46.7416 33.1389 46.7647 33.1836 46.7549C33.3909 46.7078 33.4743 46.8012 33.459 47.0234C33.6867 47.0161 33.8921 47.0095 34.0977 47.0029C34.1064 47.0289 34.1154 47.0551 34.124 47.0811C33.1723 47.4061 32.2288 47.7586 31.2666 48.0488C30.2979 48.3409 29.2888 48.3123 28.2812 48.2344C28.275 48.2756 28.269 48.317 28.2627 48.3584C28.4681 48.4478 28.6681 48.5958 28.8799 48.6152C29.3995 48.6627 29.9245 48.6496 30.4473 48.6631C30.5516 48.6658 30.6467 48.6411 30.7119 48.793C30.7475 48.8749 30.9329 48.9104 31.0566 48.9326C31.3641 48.9877 31.6771 49.0122 31.9834 49.0713C32.176 49.1085 32.3612 49.1871 32.5498 49.2461C32.6233 49.2691 32.7079 49.3237 32.7705 49.3057C33.2912 49.1539 33.7627 49.3893 34.2373 49.5098C35.0021 49.7037 35.7556 49.9506 36.502 50.209C37.2305 50.4612 37.9668 50.5172 38.7217 50.4072C38.7847 50.398 38.8481 50.3914 38.9111 50.3828C36.3855 50.932 33.7343 51.2266 31 51.2266C21.125 51.2266 12.3293 47.4102 6.65234 41.4668C7.07207 41.3715 7.455 41.5564 7.84082 41.6543C8.49248 41.8195 9.13457 42.0308 9.77051 42.251C10.3912 42.4658 11.0189 42.5126 11.6621 42.4189C12.5207 42.2938 13.3807 42.2306 14.251 42.2627C14.7388 42.2806 15.2315 42.29 15.7109 42.0898C16.1402 41.9107 16.5672 42.0183 16.9502 42.2871C17.1406 42.4208 17.3408 42.5408 17.5771 42.6924C17.6027 42.3183 17.4945 42.043 17.2734 41.8096C17.1821 41.713 17.0826 41.6213 16.9756 41.543C16.7489 41.3772 16.623 41.152 16.6279 40.8799C16.6354 40.4809 16.3891 40.2376 16.0859 40.1123C15.5031 39.8716 15.2336 39.3691 15.0244 38.8623C14.8684 38.4841 14.8934 38.0291 15.1553 37.6475C15.2156 37.5594 15.2391 37.4815 15.2305 37.3574C15.2193 37.2019 15.322 37.0353 15.3838 36.877C15.9898 35.3234 17.005 34.0616 18.2051 32.9326C18.3185 32.8259 18.4319 32.7191 18.5459 32.6133C18.8389 32.3411 19.0187 32.0107 19.1709 31.6357C19.4928 30.8426 19.7463 30.0187 20.2109 29.2842C20.6911 28.525 20.899 27.6757 20.9766 26.7822C21.0167 26.3207 21.1562 25.868 21.2305 25.4082C21.4011 24.3536 21.427 23.2967 21.1699 22.252C21.0553 21.7866 20.8986 21.3309 20.7451 20.876C20.6819 20.6885 20.6013 20.4866 20.3369 20.5107C20.1979 20.5235 19.943 20.8007 19.9062 20.9785C19.8959 21.0289 19.9077 21.0864 19.8896 21.1328C19.8518 21.2303 19.8006 21.3226 19.7549 21.417C19.6865 21.5586 19.6096 21.6971 19.5518 21.8428C19.4983 21.9774 19.4651 22.1203 19.4238 22.2598C19.3758 22.4227 19.3196 22.5844 19.2842 22.75C19.2253 23.0248 19.1734 23.2896 18.9678 23.5146C18.8567 23.6364 18.8442 23.8435 18.7666 24.002C18.6847 24.1691 18.5743 24.322 18.4824 24.4844C18.3442 24.7282 18.1994 24.97 18.0791 25.2227C17.8695 25.6621 17.6891 26.1158 17.4727 26.5518C17.19 27.1213 16.8808 27.6776 16.5898 28.2432C16.4654 28.4851 16.3636 28.7388 16.2422 28.9824C16.2004 29.0664 16.1271 29.1347 16.0742 29.2139C15.9834 29.3501 15.896 29.4889 15.8096 29.6279C15.7946 29.6524 15.797 29.6899 15.7793 29.7109C15.5461 29.9858 15.3102 30.2581 15.0762 30.5322C14.949 30.6811 14.8231 30.8316 14.6982 30.9824C14.6749 31.0106 14.6603 31.0462 14.6367 31.0742C14.1401 31.6576 13.6251 32.2273 13.1504 32.8281C12.6265 33.4912 12.1987 34.2116 11.8828 35.0059C11.5607 35.8151 11.1746 36.5997 10.7969 37.3857C10.6808 37.6272 10.5052 37.8421 10.3457 38.0605C10.2428 38.2012 9.99768 38.2254 9.83496 38.1387C8.97255 37.6774 8.1111 37.1978 7.1582 36.96C6.58749 36.8176 5.9843 36.8071 5.39746 36.7256C4.55203 36.608 3.70658 36.4907 2.86133 36.3721C1.02589 33.1007 4.77554e-05 29.4562 0 25.6133C0 11.4676 13.8792 0 31 0ZM3.56543 37.5469C3.63769 37.5699 3.70906 37.5953 3.77734 37.627C4.16344 37.8061 4.52984 38.0284 4.90332 38.2344C5.27583 38.4399 5.6462 38.6501 6.01953 38.8545C6.2829 38.9987 6.54976 39.1382 6.81641 39.2764C6.85423 39.296 6.90518 39.3152 6.94336 39.3066C7.11993 39.2666 7.18987 39.3467 7.17676 39.5361C7.37091 39.5299 7.5464 39.5242 7.72168 39.5186C7.72911 39.5407 7.73675 39.5628 7.74414 39.585C7.03358 39.8277 6.32753 40.0854 5.6123 40.3125C4.86228 39.4299 4.17816 38.5065 3.56543 37.5469ZM38.9062 22.2158C38.8161 22.2241 38.6506 22.4043 38.627 22.5195C38.6204 22.5521 38.6279 22.5892 38.6162 22.6191C38.5917 22.6822 38.5589 22.7425 38.5293 22.8037C38.485 22.8954 38.4349 22.9848 38.3975 23.0791C38.3628 23.1664 38.3412 23.2592 38.3145 23.3496C38.2833 23.4552 38.2466 23.5597 38.2236 23.667C38.1855 23.845 38.1517 24.0162 38.0186 24.1621C37.9466 24.241 37.9389 24.3758 37.8887 24.4785C37.8356 24.5869 37.7636 24.6867 37.7041 24.792C37.6146 24.9499 37.5203 25.1059 37.4424 25.2695C37.3065 25.5544 37.1901 25.8492 37.0498 26.1318C36.8666 26.5008 36.666 26.8611 36.4775 27.2275C36.3968 27.3844 36.3306 27.5491 36.252 27.707C36.2248 27.7613 36.1777 27.8053 36.1436 27.8564C36.0846 27.9448 36.0278 28.0349 35.9717 28.125C35.962 28.1408 35.9636 28.1651 35.9521 28.1787C35.801 28.3569 35.6478 28.5332 35.4961 28.7109C35.4137 28.8074 35.3328 28.9053 35.252 29.0029C35.2368 29.0212 35.2272 29.0444 35.2119 29.0625C34.89 29.4406 34.5557 29.8098 34.248 30.1992C33.9086 30.6288 33.6315 31.0957 33.4268 31.6104C33.218 32.1349 32.9675 32.6438 32.7227 33.1533C32.6475 33.3096 32.5339 33.4484 32.4307 33.5898C32.364 33.6812 32.2051 33.6969 32.0996 33.6406C31.5406 33.3416 30.982 33.0311 30.3643 32.877C29.9945 32.7847 29.6039 32.7784 29.2236 32.7256C28.0729 32.5655 26.9217 32.4069 25.7725 32.2373C24.9627 32.1178 24.171 31.9236 23.417 31.5957C23.3775 31.5785 23.3363 31.5651 23.2949 31.5527C23.283 31.5492 23.2673 31.5557 23.2197 31.5625C23.2682 31.6207 23.2934 31.674 23.335 31.6973C23.5187 31.7995 23.7057 31.8965 23.8945 31.9893C24.0526 32.067 24.2221 32.1241 24.374 32.2119C24.7238 32.4142 25.11 32.4737 25.5 32.5312C25.8254 32.5792 26.1511 32.6353 26.4707 32.7119C26.5915 32.7411 26.6915 32.8484 26.8096 32.9004C26.9382 32.957 27.0765 32.9941 27.2119 33.0342C27.3663 33.0799 27.5228 33.1187 27.6777 33.1621C27.8437 33.2088 28.0183 33.238 28.1729 33.3096C28.4232 33.4257 28.6612 33.5696 28.9033 33.7031C29.1448 33.8364 29.3849 33.973 29.627 34.1055C29.7976 34.199 29.9707 34.2894 30.1436 34.3789C30.168 34.3916 30.201 34.404 30.2256 34.3984C30.3398 34.3726 30.3854 34.4242 30.377 34.5469C30.5026 34.5428 30.616 34.5388 30.7295 34.5352C30.7343 34.5496 30.7393 34.5647 30.7441 34.5791C30.2186 34.7586 29.6973 34.953 29.166 35.1133C28.6311 35.2745 28.0739 35.2588 27.5176 35.2158C27.5141 35.2385 27.5103 35.2614 27.5068 35.2842C27.6202 35.3335 27.7308 35.415 27.8477 35.4258C28.1346 35.452 28.4251 35.4447 28.7139 35.4521C28.7713 35.4536 28.8234 35.4402 28.8594 35.5234C28.8788 35.5688 28.9814 35.5893 29.0498 35.6016C29.2197 35.632 29.3932 35.6451 29.5625 35.6777C29.6688 35.6983 29.771 35.7418 29.875 35.7744C29.9156 35.7871 29.9625 35.8166 29.9971 35.8066C30.2844 35.7231 30.5447 35.8534 30.8066 35.9199C31.229 36.027 31.6454 36.1639 32.0576 36.3066C32.4598 36.4458 32.8665 36.4767 33.2832 36.416C33.8396 36.3349 34.397 36.2937 34.9609 36.3145C35.2772 36.3261 35.5974 36.3319 35.9082 36.2021C36.1864 36.0862 36.4628 36.1559 36.7109 36.3301C36.8344 36.4168 36.9649 36.4945 37.1182 36.5928C37.1347 36.3504 37.0641 36.1718 36.9209 36.0205C36.8617 35.9579 36.7969 35.8984 36.7275 35.8477C36.5806 35.7402 36.4988 35.5943 36.502 35.418C36.5068 35.1595 36.3477 35.0021 36.1514 34.9209C35.7734 34.7649 35.5985 34.4389 35.4629 34.1104C35.3617 33.8652 35.3781 33.5697 35.5479 33.3223C35.5867 33.2653 35.6023 33.215 35.5967 33.1348C35.5894 33.034 35.6563 32.9259 35.6963 32.8232C36.0891 31.8164 36.7467 30.9983 37.5244 30.2666C37.5978 30.1976 37.6714 30.129 37.7451 30.0605C37.935 29.8842 38.0517 29.6697 38.1504 29.4268C38.359 28.9127 38.5232 28.3784 38.8242 27.9023C39.1355 27.4103 39.2701 26.8594 39.3203 26.2803C39.3463 25.9813 39.4372 25.6884 39.4854 25.3906C39.596 24.7071 39.6129 24.0219 39.4463 23.3447C39.3721 23.0432 39.2703 22.7479 39.1709 22.4531C39.1299 22.3316 39.0776 22.2002 38.9062 22.2158Z" fill="white"></path></svg>