<svg width="26" height="25" viewBox="0 0 26 25" fill="none" xmlns="http://www.w3.org/2000/svg">
<path d="M12.5703 0C19.4836 0.000196887 25.1396 5.65695 25.1396 12.5703C25.1395 18.7853 20.6007 23.9525 14.665 25L14.5938 24.9424C14.6173 24.9378 14.6415 24.9354 14.665 24.9307V16.0615H17.458L18.0166 12.5703H14.665V10.126C14.665 9.14831 15.0145 8.37988 16.5508 8.37988H18.1562V5.16797C17.2485 5.02832 16.271 4.88869 15.3633 4.88867C12.5002 4.88867 10.4747 6.63407 10.4746 9.77637V12.5703H7.33203V16.0615H10.4746V24.9307C10.4979 24.9353 10.5217 24.9379 10.5449 24.9424L10.4746 25C4.5391 23.9524 0.000166867 18.7852 0 12.5703C0 5.65683 5.65684 0 12.5703 0Z" fill="#2B3A42"/>
</svg>
